<svg width="38" height="38" viewBox="0 0 38 38" fill="none" xmlns="http://www.w3.org/2000/svg">
<g clip-path="url(#clip0_653_287)">
<path d="M3.51562 12.8906H1.17188C0.525 12.8906 0 13.357 0 13.9336V30.6C0 31.1742 0.525 31.6406 1.17188 31.6406H3.51562C4.1625 31.6406 4.6875 31.1742 4.6875 30.5977V13.9313C4.6875 13.357 4.1625 12.8906 3.51562 12.8906Z" fill="#FF8158"/>
<path d="M35.1562 12.8905H17.7891L21.375 10.0381C22.4062 9.24124 22.5703 7.76468 21.75 6.75686C20.9531 5.72561 19.4766 5.55921 18.4688 6.38186L7.03125 14.4116V30.0162C7.89141 31.0006 9.14297 31.6405 10.5469 31.6405H22.2656C23.5547 31.6405 24.6094 30.5858 24.6094 29.2967C24.6094 28.0076 23.5547 26.953 22.2656 26.953H23.4375C24.7313 26.953 25.7812 25.903 25.7812 24.6092C25.7812 23.3155 24.7313 22.2655 23.4375 22.2655H24.6094C25.9031 22.2655 26.9531 21.2155 26.9531 19.9217C26.9531 18.628 25.9031 17.578 24.6094 17.578H35.1562C36.4453 17.578 37.5 16.5233 37.5 15.2342C37.5 13.9451 36.4453 12.8905 35.1562 12.8905Z" fill="#FF8158"/>
</g>
<defs>
<clipPath id="clip0_653_287">
<rect width="37.5" height="37.5" fill="white"/>
</clipPath>
</defs>
</svg>
