<?xml version="1.0" encoding="UTF-8" standalone="no"?> <svg xmlns="http://www.w3.org/2000/svg" xmlns:xlink="http://www.w3.org/1999/xlink" xmlns:serif="http://www.serif.com/" width="100%" height="100%" viewBox="0 0 324 324" version="1.1" xml:space="preserve" style="fill-rule:evenodd;clip-rule:evenodd;stroke-miterlimit:2;"><g id="Brandschadensanierungen"><path d="M161.505,297.559c75.133,-0 136.041,-60.921 136.041,-136.042c0,-75.146 -60.908,-136.05 -136.041,-136.05c-75.13,-0 -136.038,60.904 -136.038,136.05c-0,75.121 60.908,136.042 136.038,136.042Z" style="fill:none;stroke:#f85521;stroke-width:22.79px;"></path><path d="M142.363,222.83c-15.846,-4.238 -30.013,-14.65 -38.438,-30.18c-16.279,-29.962 -5.125,-67.583 24.842,-83.854c5.887,-3.2 12.058,-5.337 18.313,-6.479l-4.38,14.771l23.492,-9.55l23.5,-9.55l-14.496,-20.825l-14.508,-20.804l-4.596,15.529c-14.042,0.308 -28.204,3.871 -41.371,11.012c-44.25,24.013 -60.712,79.563 -36.679,123.813c20.229,37.267 57.908,54.054 98.125,47.987c-16.292,-5.8 -27.196,-16.683 -33.804,-31.87Z" style="fill:#35647e;fill-rule:nonzero;"></path><path d="M222.488,219.763c-1.571,5.296 -7.704,18.95 -22.533,19.025c-8.746,0.029 -15.246,-8.021 -18.275,-16c-2.321,-6.142 0.358,-12.638 1.8,-13.746c-0,0 4.166,3.988 6.954,4.15c2.037,-3.354 -0.917,-5.337 -1.009,-8.125c-0.129,-3.958 1.467,-6.408 4.38,-9.3c3.933,-3.883 7.654,-8.454 4.658,-13.912c7.937,5.358 14.15,9.154 9.729,21.104c4.3,-2.15 7.138,-3.917 7.167,-8.838c3.333,5.742 9.158,18.775 7.129,25.642Zm14.117,-83.634c-0.059,12.646 -7.371,17.2 -18.43,22.7c11.367,-30.695 -4.62,-40.454 -24.995,-54.2c7.675,14 -1.888,25.746 -12,35.755c-7.517,7.441 -11.596,13.716 -11.271,23.891c0.229,7.2 7.846,12.259 2.621,20.905c-7.192,-0.413 -17.917,-10.663 -17.917,-10.663c-3.675,2.829 -10.596,19.575 -4.617,35.308c7.804,20.525 24.509,41.259 46.988,41.15c38.141,-0.175 53.916,-35.279 57.958,-48.891c5.225,-17.646 -9.758,-51.184 -18.337,-65.955Z" style="fill:#35647e;fill-rule:nonzero;"></path></g></svg> 