<?xml version="1.0" encoding="UTF-8" standalone="no"?> <svg xmlns="http://www.w3.org/2000/svg" xmlns:xlink="http://www.w3.org/1999/xlink" xmlns:serif="http://www.serif.com/" width="100%" height="100%" viewBox="0 0 324 324" version="1.1" xml:space="preserve" style="fill-rule:evenodd;clip-rule:evenodd;stroke-miterlimit:2;"><g id="Kanal--und-Abflussverstopfungsbehebungen" serif:id="Kanal- und Abflussverstopfungsbehebungen"><path d="M161.505,297.543c75.133,0 136.041,-60.908 136.041,-136.033c0,-75.142 -60.908,-136.046 -136.041,-136.046c-75.13,-0 -136.038,60.904 -136.038,136.046c-0,75.125 60.908,136.033 136.038,136.033Z" style="fill:none;stroke:#f85521;stroke-width:22.79px;"></path><path d="M219.05,124.36c0,7.729 -21.891,18.52 -57.554,18.52c-35.65,0 -57.537,-10.791 -57.537,-18.52l-3.796,-0l-0,112.483c-0,12.321 27.466,22.321 61.333,22.321c33.888,-0 61.354,-10 61.354,-22.321l0,-112.483l-3.8,-0Z" style="fill:#35647e;fill-rule:nonzero;"></path><path d="M161.496,142.88c35.663,0 57.55,-10.779 57.55,-18.52c0,-7.725 -21.887,-18.505 -57.55,-18.505c-35.65,0 -57.537,10.78 -57.537,18.505c-0,7.741 21.887,18.52 57.537,18.52Z" style="fill:none;stroke:#35647e;stroke-width:7.58px;"></path><path d="M192.121,96.676l-30.625,-43.583l-30.612,43.583l14.479,0l-0,31.2l32.283,0l0,-31.2l14.475,0Z" style="fill:#35647e;fill-rule:nonzero;"></path></g></svg> 