<?xml version="1.0" encoding="UTF-8" standalone="no"?> <svg xmlns="http://www.w3.org/2000/svg" xmlns:xlink="http://www.w3.org/1999/xlink" xmlns:serif="http://www.serif.com/" width="100%" height="100%" viewBox="0 0 324 324" version="1.1" xml:space="preserve" style="fill-rule:evenodd;clip-rule:evenodd;stroke-miterlimit:2;"><g id="Kanal-TV-Inspektionen"><path d="M161.505,297.553c75.133,-0 136.041,-60.905 136.041,-136.03c0,-75.141 -60.908,-136.05 -136.041,-136.05c-75.13,0 -136.038,60.909 -136.038,136.05c-0,75.125 60.908,136.03 136.038,136.03Z" style="fill:none;stroke:#f85521;stroke-width:22.79px;"></path><path d="M145.575,83.694c-36.85,0 -66.716,29.883 -66.716,66.733c-0,36.855 29.866,66.717 66.716,66.717c36.846,0 66.717,-29.862 66.717,-66.717c0,-36.85 -29.871,-66.733 -66.717,-66.733Zm0,113c-25.55,0 -46.266,-20.729 -46.266,-46.267c-0,-25.566 20.716,-46.283 46.266,-46.283c25.559,0 46.271,20.717 46.271,46.283c0,25.538 -20.712,46.267 -46.271,46.267Z" style="fill:#35647e;fill-rule:nonzero;"></path><path d="M194.005,212.502l22.916,22.75c6.55,5.655 16.417,5.446 22.625,-0.766c6.213,-6.217 6.434,-16.079 0.767,-22.617l-22.75,-22.929l-23.558,23.562Z" style="fill:#35647e;fill-rule:nonzero;"></path></g></svg> 