<?xml version="1.0" encoding="UTF-8" standalone="no"?> <svg xmlns="http://www.w3.org/2000/svg" xmlns:xlink="http://www.w3.org/1999/xlink" xmlns:serif="http://www.serif.com/" width="100%" height="100%" viewBox="0 0 324 324" version="1.1" xml:space="preserve" style="fill-rule:evenodd;clip-rule:evenodd;stroke-miterlimit:2;"><g id="Leckortung"><path d="M161.505,297.547c75.133,0 136.041,-60.904 136.041,-136.05c0,-75.125 -60.908,-136.029 -136.041,-136.029c-75.13,-0 -136.038,60.904 -136.038,136.029c-0,75.146 60.908,136.05 136.038,136.05Z" style="fill:none;stroke:#f85521;stroke-width:22.79px;"></path><path d="M161.509,163.472c-16.654,0 -30.146,-13.496 -30.146,-30.133c-0,-16.642 13.492,-30.138 30.146,-30.138c16.637,0 30.133,13.496 30.133,30.138c0,16.637 -13.496,30.133 -30.133,30.133Zm-0,-97.417c-37.175,0 -67.296,30.121 -67.296,67.284c-0,37.162 67.296,123.621 67.296,123.621c-0,-0 67.287,-86.459 67.287,-123.621c0,-37.163 -30.121,-67.284 -67.287,-67.284Z" style="fill:#35647e;fill-rule:nonzero;"></path></g></svg> 