<?xml version="1.0" encoding="UTF-8" standalone="no"?> <svg xmlns="http://www.w3.org/2000/svg" xmlns:xlink="http://www.w3.org/1999/xlink" xmlns:serif="http://www.serif.com/" width="100%" height="100%" viewBox="0 0 324 324" version="1.1" xml:space="preserve" style="fill-rule:evenodd;clip-rule:evenodd;stroke-miterlimit:2;"><g id="Rohr--und-Kanalsanierungen" serif:id="Rohr- und Kanalsanierungen"><path d="M161.505,297.565c75.133,-0 136.041,-60.921 136.041,-136.046c0,-75.142 -60.908,-136.05 -136.041,-136.05c-75.13,-0 -136.038,60.908 -136.038,136.05c-0,75.125 60.908,136.046 136.038,136.046Z" style="fill:none;stroke:#f85521;stroke-width:22.79px;"></path><path d="M234.65,150.927c11.717,-11.092 15.405,-26.883 11.075,-40.942l-21.891,20.713l-22.746,-1.184l-5.763,-5.462l-1.262,-21.529l21.892,-20.717c-14.85,-4.108 -31.55,-0.608 -43.263,10.483c-13,12.296 -16.121,30.417 -9.362,45.513l-83.563,79.104c-5.646,5.338 -5.646,13.996 -0,19.334l2.792,2.641c5.641,5.338 14.791,5.338 20.441,0l83.567,-79.1c15.942,6.392 35.083,3.454 48.083,-8.854Z" style="fill:#35647e;fill-rule:nonzero;"></path></g></svg> 