<svg id="Ebene_1" data-name="Ebene 1" xmlns="http://www.w3.org/2000/svg" xmlns:xlink="http://www.w3.org/1999/xlink" viewBox="0 0 25.51 25.51"><defs><style>.cls-1{fill:none;}.cls-2{clip-path:url(#clip-path);}.cls-3{fill:#fff;}.cls-4{fill:#547c97;}.cls-5{fill:#e56f2e;}</style><clipPath id="clip-path" transform="translate(-670.24 -371.24)"><rect class="cls-1" x="670.24" y="371.24" width="25.51" height="25.51"/></clipPath></defs><title>soluto-marker</title><g class="cls-2"><path class="cls-3" d="M683,396.76A12.76,12.76,0,1,0,670.24,384,12.77,12.77,0,0,0,683,396.76" transform="translate(-670.24 -371.24)"/><path class="cls-4" d="M683.61,374.59a2.63,2.63,0,0,0-3.14-2,11.7,11.7,0,0,0-9.16,11.07,3.66,3.66,0,0,1,5.31-.4,6.43,6.43,0,0,1,5-5.52,2.63,2.63,0,0,0,2-3.14" transform="translate(-670.24 -371.24)"/><path class="cls-5" d="M692.41,384.61a2.63,2.63,0,0,0,2-3.14,11.7,11.7,0,0,0-11.07-9.16,3.66,3.66,0,0,1,.4,5.31,6.43,6.43,0,0,1,5.52,5,2.63,2.63,0,0,0,3.14,2" transform="translate(-670.24 -371.24)"/><path class="cls-4" d="M682.39,393.41a2.63,2.63,0,0,0,3.14,2,11.7,11.7,0,0,0,9.16-11.07,3.66,3.66,0,0,1-5.31.4,6.43,6.43,0,0,1-5,5.52,2.63,2.63,0,0,0-2,3.14" transform="translate(-670.24 -371.24)"/><path class="cls-4" d="M673.59,383.39a2.63,2.63,0,0,0-2,3.14,11.7,11.7,0,0,0,11.07,9.16,3.66,3.66,0,0,1-.4-5.31,6.43,6.43,0,0,1-5.52-5,2.63,2.63,0,0,0-3.14-2" transform="translate(-670.24 -371.24)"/></g></svg>