<?xml version="1.0" encoding="UTF-8" standalone="no"?> <svg xmlns="http://www.w3.org/2000/svg" xmlns:xlink="http://www.w3.org/1999/xlink" xmlns:serif="http://www.serif.com/" width="100%" height="100%" viewBox="0 0 311 57" version="1.1" xml:space="preserve" style="fill-rule:evenodd;clip-rule:evenodd;stroke-linejoin:round;stroke-miterlimit:2;"><path d="M310,28.348c0.188,-7.605 -2.834,-14.949 -8.32,-20.22c-11.443,-10.798 -29.557,-10.798 -41,0c-5.485,5.271 -8.507,12.615 -8.32,20.22c-0.187,7.605 2.835,14.949 8.32,20.22c11.443,10.798 29.557,10.798 41,0c5.486,-5.271 8.508,-12.614 8.32,-20.22m-17.18,12.52c-2.954,3.271 -7.162,5.141 -11.57,5.141c-4.408,-0 -8.616,-1.87 -11.57,-5.141c-3.115,-3.396 -4.794,-7.873 -4.68,-12.48c-0.097,-4.622 1.591,-9.108 4.71,-12.52c2.941,-3.294 7.154,-5.181 11.57,-5.181c4.416,0 8.629,1.887 11.57,5.181c3.119,3.412 4.807,7.898 4.71,12.52c0.106,4.612 -1.584,9.088 -4.71,12.48m-42.37,-29l0,-10.6l-43.34,0l0,10.6l15.54,0l0,44.27l12.24,0l0,-44.28l15.54,0l0.02,0.01Zm-83.91,19.7l0,-30.3l-12.24,0l0,30.7c0,7.9 2.21,13.997 6.63,18.29c4.42,4.293 10.057,6.44 16.91,6.44c6.853,0 12.477,-2.133 16.87,-6.4c4.393,-4.267 6.59,-10.377 6.59,-18.33l0,-30.7l-12.24,0l0,30.3c0,4.393 -1,7.86 -3,10.4c-1.958,2.515 -5.015,3.935 -8.2,3.81c-3.196,0.122 -6.263,-1.297 -8.24,-3.81c-2.04,-2.54 -3.06,-6.007 -3.06,-10.4m-16.89,24.57l0,-10.91l-23.38,0l0,-44l-12.24,0l0,54.91l35.62,0Zm-43.62,-27.79c0.184,-7.602 -2.837,-14.941 -8.32,-20.21c-5.437,-5.376 -12.836,-8.313 -20.48,-8.13c-7.644,-0.183 -15.043,2.754 -20.48,8.13c-5.485,5.271 -8.507,12.615 -8.32,20.22c-0.185,7.602 2.836,14.942 8.32,20.21c5.437,5.376 12.836,8.313 20.48,8.13c7.644,0.183 15.043,-2.754 20.48,-8.13c5.483,-5.269 8.504,-12.608 8.32,-20.21m-17.18,12.51c-2.955,3.275 -7.164,5.147 -11.575,5.147c-4.411,-0 -8.62,-1.872 -11.575,-5.147c-3.141,-3.385 -4.845,-7.863 -4.75,-12.48c-0.097,-4.622 1.591,-9.108 4.71,-12.52c2.943,-3.295 7.157,-5.181 11.575,-5.181c4.418,-0 8.632,1.886 11.575,5.181c3.13,3.408 4.828,7.894 4.74,12.52c0.109,4.61 -1.577,9.087 -4.7,12.48m-67.32,-30.1c5.073,0 9.99,1.807 14.75,5.42l6.2,-9c-2.818,-2.346 -6.051,-4.143 -9.53,-5.3c-3.536,-1.234 -7.254,-1.87 -11,-1.88c-5.6,0 -10.267,1.413 -14,4.24c-3.733,2.827 -5.617,6.843 -5.65,12.05c0,5.207 1.477,9.027 4.43,11.46c2.953,2.433 7.62,4.41 14,5.93c4,0.993 6.693,1.973 8.08,2.94c1.294,0.881 2.049,2.366 2,3.93c0.071,1.542 -0.626,3.023 -1.86,3.95c-1.56,1.05 -3.423,1.559 -5.3,1.45c-5.02,0 -10.487,-2.59 -16.4,-7.77l-7.3,9c6.953,6.44 14.773,9.657 23.46,9.65c6,0 10.85,-1.53 14.55,-4.59c3.62,-2.909 5.67,-7.358 5.53,-12c0,-4.92 -1.437,-8.663 -4.31,-11.23c-2.873,-2.567 -6.913,-4.503 -12.12,-5.81c-5.207,-1.28 -8.54,-2.393 -10,-3.34c-1.331,-0.797 -2.137,-2.249 -2.11,-3.8c-0.052,-1.488 0.601,-2.916 1.76,-3.85c1.387,-1.033 3.093,-1.546 4.82,-1.45" style="fill:#35657f;fill-rule:nonzero;"></path></svg> 