<?xml version="1.0" encoding="UTF-8" standalone="no"?> <svg xmlns="http://www.w3.org/2000/svg" xmlns:xlink="http://www.w3.org/1999/xlink" xmlns:serif="http://www.serif.com/" width="100%" height="100%" viewBox="0 0 324 324" version="1.1" xml:space="preserve" style="fill-rule:evenodd;clip-rule:evenodd;stroke-miterlimit:2;"><g id="Wasserschadensanierungen"><path d="M161.505,297.546c75.133,0 136.041,-60.908 136.041,-136.033c0,-75.142 -60.908,-136.046 -136.041,-136.046c-75.13,-0 -136.038,60.904 -136.038,136.046c-0,75.125 60.908,136.033 136.038,136.033Z" style="fill:none;stroke:#f85521;stroke-width:22.79px;"></path><path d="M148.342,223.617c-15.842,-4.237 -30.004,-14.667 -38.433,-30.179c-16.28,-29.967 -5.125,-67.588 24.845,-83.875c5.884,-3.188 12.059,-5.321 18.309,-6.479l-4.375,14.787l23.487,-9.566l23.505,-9.534l-14.496,-20.837l-14.513,-20.796l-4.591,15.529c-14.05,0.313 -28.209,3.875 -41.376,11.021c-44.25,24.008 -60.708,79.558 -36.679,123.808c20.229,37.271 62.8,54.692 102.163,44.979c-17.025,-2.516 -31.233,-13.67 -37.846,-28.858Z" style="fill:#35647e;fill-rule:nonzero;"></path><path d="M200.971,228.75c-18.662,0 -33.841,-15.187 -33.841,-33.858c-0,-4.212 3.408,-7.621 7.633,-7.621c4.221,0 7.629,3.409 7.629,7.621c0,10.25 8.338,18.583 18.579,18.583c4.221,0 7.638,3.425 7.638,7.638c-0,4.212 -3.417,7.637 -7.638,7.637Zm29.984,-81.329c-8.68,-14.308 -17.25,-26.141 -17.6,-26.629l-6.196,-8.542l-6.188,-8.512l-6.191,8.512l-6.188,8.542c-0.358,0.488 -8.929,12.321 -17.6,26.629c-13.025,21.509 -19.096,36.529 -19.096,47.296c0,26.825 22.017,48.654 49.075,48.654c27.054,0 49.071,-21.829 49.071,-48.654c0,-10.767 -6.071,-25.787 -19.087,-47.296Z" style="fill:#35647e;fill-rule:nonzero;"></path></g></svg> 